<svg id="Layer_1" data-name="Layer 1" xmlns="http://www.w3.org/2000/svg" viewBox="0 0 545.36 336.4"><defs><style>.cls-1{fill:#050606;stroke:#231f20;}.cls-1,.cls-2{stroke-miterlimit:10;}.cls-2{stroke:#000;}.cls-3{fill:#4868b1;}.cls-4{font-size:21.35px;fill:#fff;font-family:Arial-BoldMT, Arial;font-weight:700;}.cls-5{letter-spacing:-0.07em;}.cls-6{letter-spacing:0em;}.cls-7{letter-spacing:-0.02em;}.cls-8{letter-spacing:-0.04em;}.cls-9{fill:#231f20;}</style></defs><title>Pkbm Zahratul Syitha</title><g id="small"><polygon class="cls-1" points="360.15 94.08 360.15 118.92 169.06 118.92 169.06 94.08 180.03 94.08 264.75 111.55 343.04 94.08 360.15 94.08"/><path class="cls-2" d="M381,211.28H198l-45.6,79,137.09,28.27,135.9-30.33Zm-67.59,88.87-23.24-11.54-22.68,12.61,3.79-25.67-19-17.67,25.58-4.33L288.76,230l12,23,25.76,3.14-18.16,18.53Z" transform="translate(-24.96 -210.78)"/><path class="cls-3" d="M494,368.41l76.31,23h-205a7.88,7.88,0,0,1-7.88-7.88v-.05h65.56a6.75,6.75,0,0,0,6.75-6.76V345.44H570.32Z" transform="translate(-24.96 -210.78)"/><path class="cls-3" d="M222.16,383.46v1a8,8,0,0,1-8,8H25l59.81-23L25,346.53h121.2V376.7a6.75,6.75,0,0,0,6.76,6.76Z" transform="translate(-24.96 -210.78)"/><rect class="cls-3" x="122.96" y="126.73" width="280.14" height="44.41" rx="9.83"/><text class="cls-4" transform="translate(130.52 156.78)">PKBM ZAHR<tspan class="cls-5" x="128.07" y="0">A</tspan><tspan class="cls-6" x="141.9" y="0">TU</tspan><tspan class="cls-7" x="170.36" y="0">L</tspan><tspan x="183.01" y="0" xml:space="preserve"> SYITH</tspan><tspan class="cls-8" x="251.8" y="0">A</tspan></text><path class="cls-9" d="M385.11,493.1A182.67,182.67,0,0,0,302,506.4c-6.06,2.52-12,5.25-17.79,8.35h7.57a156.68,156.68,0,0,0-30.88-14.56,150.6,150.6,0,0,0-45.44-8.14A146.17,146.17,0,0,0,194,493.1l7.5,7.5V409.82l-7.5,7.5a160.45,160.45,0,0,1,35.79.76l-2-.27a160.34,160.34,0,0,1,40.33,11l-1.79-.75a160.87,160.87,0,0,1,17.84,8.86,7.53,7.53,0,0,0,7.57,0,155.44,155.44,0,0,1,19.25-9.8l-1.79.76a153.23,153.23,0,0,1,38.67-10.6l-2,.26a154,154,0,0,1,39.2-.22l-7.5-7.5V500.6c0,3.93,3.45,7.69,7.5,7.5a7.63,7.63,0,0,0,7.5-7.5V409.82a7.63,7.63,0,0,0-2.2-5.3,8.73,8.73,0,0,0-5.3-2.2,153.18,153.18,0,0,0-38.51.13,155.32,155.32,0,0,0-46.05,13A152,152,0,0,0,284.2,424h7.57a167.47,167.47,0,0,0-78.67-22.25,159.85,159.85,0,0,0-19.08.6,7.92,7.92,0,0,0-5.3,2.2,7.78,7.78,0,0,0-2.2,5.3V500.6a7.66,7.66,0,0,0,2.2,5.31c1.36,1.25,3.37,2.43,5.3,2.19a146.43,146.43,0,0,1,36.77.15l-2-.27a145.94,145.94,0,0,1,37,10.07l-1.79-.76a149.92,149.92,0,0,1,14.8,7.23c2.75,1.54,6,4.21,9.2,4.21,2.36,0,4.44-1.39,6.47-2.44,1.14-.58,2.28-1.16,3.43-1.72q4.39-2.15,8.89-4l-1.79.75a178.61,178.61,0,0,1,45.08-12.35l-2,.27a179.31,179.31,0,0,1,37.05-1.1c3.92.3,7.67-3.65,7.5-7.5A7.7,7.7,0,0,0,385.11,493.1Z" transform="translate(-24.96 -210.78)"/><path d="M385.11,522.63a123.41,123.41,0,0,0-84,22H275.34a134.35,134.35,0,0,0-81.32-22v-9.38a154.12,154.12,0,0,1,35.73-.65A155.72,155.72,0,0,1,288,530.44,164.64,164.64,0,0,1,355,512a159.55,159.55,0,0,1,30.08,1.27Z" transform="translate(-24.96 -210.78)"/><path class="cls-9" d="M385.11,520.13A126.63,126.63,0,0,0,313.6,534a123.48,123.48,0,0,0-13.77,8.44l1.26-.34H275.34l1.27.34a137.69,137.69,0,0,0-65.51-22.19,135.21,135.21,0,0,0-17.08-.15l2.5,2.5v-9.38l-2.5,2.5a153.25,153.25,0,0,1,79.41,10.49c4.46,1.87,8.75,4,13.06,6.23,1.64.83,2.76.12,4.21-.62,1.1-.56,2.21-1.1,3.33-1.64,2.23-1.07,4.49-2.1,6.78-3.07A162.61,162.61,0,0,1,336.3,516.6a157,157,0,0,1,48.14-.94l-1.83-2.41v4.81c0,3.22,5,3.22,5,0v-.24c0-3.22-5-3.22-5,0v4.81c0,3.21,5,3.22,5,0v-4.81c0-3.22-5-3.22-5,0v.24c0,3.22,5,3.22,5,0v-4.81a2.53,2.53,0,0,0-1.84-2.41,164.6,164.6,0,0,0-83.2,10.21q-8.1,3.23-15.85,7.23h2.52a158.57,158.57,0,0,0-73.16-18.91A155,155,0,0,0,194,510.75a2.57,2.57,0,0,0-2.5,2.5v9.38a2.52,2.52,0,0,0,2.5,2.5A131.85,131.85,0,0,1,258.62,538q4.31,2.09,8.46,4.47c2.3,1.32,4.49,2.82,6.78,4.17,1.31.77,3.12.49,4.58.49h20.71a6.19,6.19,0,0,0,3.41-.49c2.24-1.4,4.36-3,6.61-4.34,2.69-1.65,5.45-3.19,8.25-4.63a120.2,120.2,0,0,1,20.93-8.31,121.73,121.73,0,0,1,43.08-4.56c1.23.09,2.45.2,3.68.33a2.5,2.5,0,0,0,0-5Z" transform="translate(-24.96 -210.78)"/><path d="M385.1,447c-22.84.23-46.84.8-67.26,12.37-5.68,3.23-10.52,7.48-15.51,11.64-2,1.68-1.87,5.36,0,7.07a5.14,5.14,0,0,0,7.07,0c2.14-1.79,4.24-3.63,6.41-5.39.12-.09.75-.58.09-.08l.69-.52,1.57-1.12c1.06-.73,2.14-1.43,3.25-2.09a66.63,66.63,0,0,1,6.63-3.51l1.77-.78c.78-.34-1.09.42.2-.08l.8-.32c1.2-.47,2.42-.91,3.64-1.33a97.77,97.77,0,0,1,14.88-3.7l2.16-.35,1-.14c.15,0,1-.14.11,0,1.44-.2,2.89-.36,4.34-.51,2.9-.29,5.81-.5,8.73-.66,6.48-.35,13-.41,19.46-.48a5,5,0,0,0,0-10Z" transform="translate(-24.96 -210.78)"/><path class="cls-9" d="M201.44,496.52c.53-.26,1.06-.5,1.59-.73-1,.43.2-.08.42-.16.94-.36,1.9-.7,2.86-1a54.29,54.29,0,0,1,5.88-1.46c1-.19,2-.35,3-.5-1.23.18.62-.07.84-.09l1.3-.13c2.12-.2,4.25-.31,6.37-.36,4.13-.11,8.26,0,12.38.16,2,.07,4,.21,6,.32.38,0,.28,0-.28-.05l.83.14c.48.08.95.19,1.42.31s.92.28,1.38.43l0,0c.25.12.5.25.74.39a5,5,0,0,0,5.05-8.64c-4.33-2.37-9.14-2.66-14-2.84-4.49-.18-9-.32-13.48-.2-9.43.24-18.74,1.69-27.31,5.79-2.37,1.13-3.18,4.7-1.8,6.84a5.15,5.15,0,0,0,6.84,1.8Z" transform="translate(-24.96 -210.78)"/><path class="cls-9" d="M380.07,488.88a26.29,26.29,0,0,1-2.73-.88l-.61-.25c.07,0,.7.31.17.07s-.94-.41-1.41-.63c-1.93-.86-3.86-1.72-5.86-2.41a52.86,52.86,0,0,0-10.08-2.34,86.51,86.51,0,0,0-22.62-.09,116.18,116.18,0,0,0-12.71,2.26,5,5,0,0,0-3.5,6.15,5.1,5.1,0,0,0,6.15,3.49c3.29-.79,6.61-1.4,10-1.89l-.31,0a6,6,0,0,1,.61-.07l1.23-.15c.89-.09,1.79-.18,2.68-.25,1.81-.15,3.61-.25,5.42-.29a75.9,75.9,0,0,1,10.55.47,4.22,4.22,0,0,1,.61.07s-.91-.13-.32,0l1.2.18c.86.15,1.72.3,2.57.49a47.17,47.17,0,0,1,5,1.31c.87.27,1.72.58,2.56.91l.54.21c.67.26-.84-.38-.11,0,.47.22.94.42,1.41.63a44.61,44.61,0,0,0,7,2.69,5,5,0,0,0,2.66-9.64Z" transform="translate(-24.96 -210.78)"/></g></svg>